<?xml version="1.0" encoding="UTF-8"?>
<svg width="100%" height="100%" viewBox="0 0 500 400" xmlns="http://www.w3.org/2000/svg">
    <g transform="matrix(-0.883766,-0.334772,0.318008,-0.871314,230.288,495.388)">
        <path d="M229.707,36.294C229.707,24.415 239.194,14.636 250.878,14.47C262.563,14.304 272.049,23.814 272.049,35.694L272.049,448.952C272.049,460.831 262.563,470.61 250.878,470.776C239.194,470.941 229.707,461.431 229.707,449.552L229.707,36.294Z" style="fill:rgb(243,139,168);"/>
    </g>
    <g transform="matrix(-0.662825,-0.251079,0.238506,-0.653485,407.704,376.531)">
        <path d="M222.65,36.394C222.65,20.555 235.299,7.516 250.878,7.295C266.458,7.075 279.106,19.754 279.106,35.594L279.106,448.852C279.106,464.691 266.458,477.729 250.878,477.95C235.299,478.171 222.65,465.491 222.65,449.652L222.65,36.394Z" style="fill:rgb(249,226,175);"/>
    </g>
    <g transform="matrix(-0.669589,0.232545,-0.238506,-0.653485,426.57,255.2)">
        <path d="M222.65,36.394C222.65,20.555 235.299,7.516 250.878,7.295C266.458,7.075 279.106,19.754 279.106,35.594L279.106,448.852C279.106,464.691 266.458,477.729 250.878,477.95C235.299,478.171 222.65,465.491 222.65,449.652L222.65,36.394Z" style="fill:rgb(250,179,135);"/>
    </g>
    <g transform="matrix(-0.892785,0.31006,-0.318008,-0.871314,715.41,333.613)">
        <path d="M229.707,36.294C229.707,24.415 239.194,14.636 250.878,14.47C262.563,14.304 272.049,23.814 272.049,35.694L272.049,448.952C272.049,460.831 262.563,470.61 250.878,470.776C239.194,470.941 229.707,461.431 229.707,449.552L229.707,36.294Z" style="fill:rgb(166,227,161);"/>
    </g>
</svg>
