<?xml version="1.0" encoding="UTF-8" standalone="no"?>
<!-- Created with Inkscape (http://www.inkscape.org/) -->

<svg
   width="1500mm"
   height="500mm"
   viewBox="0 0 1500 500"
   version="1.1"
   id="svg5"
   inkscape:version="1.2.2 (b0a8486541, 2022-12-01)"
   sodipodi:docname="meowix-text.svg"
   inkscape:export-filename="meowix-text.png"
   inkscape:export-xdpi="96"
   inkscape:export-ydpi="96"
   xmlns:inkscape="http://www.inkscape.org/namespaces/inkscape"
   xmlns:sodipodi="http://sodipodi.sourceforge.net/DTD/sodipodi-0.dtd"
   xmlns="http://www.w3.org/2000/svg"
   xmlns:svg="http://www.w3.org/2000/svg">
  <sodipodi:namedview
     id="namedview7"
     pagecolor="#505050"
     bordercolor="#eeeeee"
     borderopacity="1"
     inkscape:showpageshadow="0"
     inkscape:pageopacity="0"
     inkscape:pagecheckerboard="0"
     inkscape:deskcolor="#505050"
     inkscape:document-units="mm"
     showgrid="false"
     inkscape:zoom="0.17727627"
     inkscape:cx="786.90736"
     inkscape:cy="1139.4644"
     inkscape:window-width="938"
     inkscape:window-height="1020"
     inkscape:window-x="12"
     inkscape:window-y="44"
     inkscape:window-maximized="1"
     inkscape:current-layer="text298" />
  <defs
     id="defs2" />
  <g
     inkscape:label="Layer 1"
     inkscape:groupmode="layer"
     id="layer1">
    <g
       aria-label="Meowix"
       id="text298"
       style="font-size:377.977px;font-family:Comfortaa;-inkscape-font-specification:Comfortaa;fill:#ffffff;stroke-width:1.97172">
      <path
         d="m 73.559887,396.65506 q -6.047632,0 -10.583355,-4.15775 -4.157747,-4.53572 -4.157747,-10.58335 V 116.19613 q 0,-6.42561 4.157747,-10.58335 4.535723,-4.15775 10.583355,-4.15775 9.071448,0 13.229195,7.55954 L 214.16733,362.25915 H 201.31611 L 326.42649,109.01457 q 4.53573,-7.55954 13.2292,-7.55954 6.04763,0 10.20538,4.15775 4.15774,4.15774 4.15774,10.58335 v 265.71783 q 0,6.04763 -4.15774,10.58335 -4.15775,4.15775 -10.20538,4.15775 -6.42561,0 -10.96133,-4.15775 -4.15775,-4.53572 -4.15775,-10.58335 V 154.37181 l 6.42561,0.37798 -111.50321,227.92012 q -4.15775,7.18156 -12.85122,7.18156 -9.44943,0 -13.60717,-9.07144 L 80.74145,156.26169 l 7.55954,-1.88988 v 227.54215 q 0,6.04763 -4.535724,10.58335 -4.157747,4.15775 -10.205379,4.15775 z"
         style="stroke-width:1.97174;fill:#f38ba8;fill-opacity:1"
         id="path667" />
      <path
         d="m 519.57308,398.54494 q -30.61613,0 -54.42868,-13.22919 -23.43458,-13.60717 -37.04175,-37.41972 -13.22919,-23.81255 -13.22919,-54.42869 0,-30.99411 12.47324,-54.42868 12.85122,-23.81256 35.15186,-37.41973 22.30064,-13.60717 51.40487,-13.60717 28.72625,0 49.89296,13.2292 21.54469,12.85121 33.26198,35.90781 11.71728,23.0566 11.71728,52.5388 0,6.04763 -3.77977,9.8274 -3.77977,3.4018 -9.8274,3.4018 H 434.52826 V 278.72624 H 598.1923 l -16.25301,11.71729 q 0.37797,-21.92267 -7.93752,-39.30961 -8.31549,-17.38694 -23.81255,-27.21434 -15.11908,-9.82741 -36.28579,-9.82741 -21.54469,0 -37.7977,10.20538 -16.25301,10.20538 -25.32446,28.34828 -8.69347,17.76492 -8.69347,40.82151 0,23.0566 9.8274,40.82152 10.20538,17.76492 27.59232,27.97029 17.38695,10.20538 40.06556,10.20538 13.60718,0 27.21435,-4.53572 13.98515,-4.9137 22.30064,-12.09527 4.15775,-3.40179 9.44943,-3.40179 5.29167,-0.37797 9.07144,2.64584 4.9137,4.53572 4.9137,9.8274 0.37798,5.29168 -4.15774,9.07145 -12.47324,10.58336 -31.75007,17.76492 -19.27683,6.80358 -37.04175,6.80358 z"
         style="stroke-width:1.97174;fill:#fab387;fill-opacity:1"
         id="path669" />
      <path
         d="m 744.46937,398.54494 q -30.23816,0 -54.05071,-13.60717 -23.81255,-13.60717 -37.41972,-37.41972 -13.60717,-23.81255 -13.60717,-54.05071 0,-30.61613 13.60717,-54.42868 13.60717,-23.81256 37.41972,-37.41973 23.81255,-13.60717 54.05071,-13.60717 30.23816,0 53.67273,13.60717 23.81256,13.60717 37.41973,37.41973 13.60717,23.81255 13.98515,54.42868 0,30.23816 -13.98515,54.05071 -13.60717,23.81255 -37.41973,37.41972 -23.43457,13.60717 -53.67273,13.60717 z m 0,-26.45838 q 21.92267,0 39.30961,-10.20538 17.38694,-10.20538 27.21434,-27.9703 9.8274,-17.76492 9.8274,-40.44354 0,-22.67862 -9.8274,-40.44354 -9.8274,-18.14289 -27.21434,-28.34827 -17.38694,-10.20538 -39.30961,-10.20538 -21.92266,0 -39.3096,10.20538 -17.38695,10.20538 -27.59233,28.34827 -9.8274,17.76492 -9.8274,40.44354 0,22.67862 9.8274,40.44354 10.20538,17.76492 27.59233,27.9703 17.38694,10.20538 39.3096,10.20538 z"
         style="stroke-width:1.97174;fill:#f9e2af;fill-opacity:1"
         id="path671" />
      <path
         d="m 941.77309,396.65506 q -4.9137,0 -8.69347,-2.64584 -3.77977,-2.64584 -5.29168,-6.80358 L 868.82353,210.3124 q -2.26786,-9.44942 0.37798,-14.7411 2.64584,-5.66965 10.58335,-5.66965 4.91371,0 8.69348,2.64584 3.77977,2.64583 5.66965,8.31549 l 52.5388,160.64022 h -8.31549 l 48.75903,-160.26224 q 1.51191,-4.9137 4.9137,-7.93752 3.77977,-3.40179 9.44947,-3.40179 5.6696,0 9.0714,3.02381 3.7798,3.02382 5.2917,8.3155 l 46.4912,156.48247 h -6.4257 l 51.4049,-156.86045 q 3.7798,-10.96133 13.9852,-10.96133 8.3155,0 11.3393,6.42561 3.0238,6.04763 0,13.98514 l -58.9644,176.89324 q -1.5119,4.15774 -5.2917,6.80358 -3.4018,2.64584 -8.3155,2.64584 -4.9137,0 -9.0715,-2.64584 -3.7797,-2.64584 -4.9137,-6.80358 L 998.46964,229.21125 h 4.53576 l -47.62514,157.99439 q -1.51191,4.53572 -5.29168,7.18156 -3.77977,2.26786 -8.31549,2.26786 z"
         style="stroke-width:1.97174;fill:#a6e3a1;fill-opacity:1"
         id="path673" />
      <path
         d="m 1195.3956,396.65506 q -6.8036,0 -10.9613,-3.77977 -3.7798,-4.15775 -3.7798,-10.96133 V 204.64275 q 0,-6.80359 3.7798,-10.58336 4.1577,-4.15774 10.9613,-4.15774 6.4256,0 10.2054,4.15774 4.1577,3.77977 4.1577,10.58336 v 177.27121 q 0,6.80358 -4.1577,10.96133 -3.7798,3.77977 -10.2054,3.77977 z m -0.378,-246.06302 q -8.3155,0 -14.3631,-6.04763 -6.0476,-6.04763 -6.0476,-14.7411 0,-9.44943 6.0476,-14.74111 6.4256,-5.66965 14.7411,-5.66965 7.9375,0 13.9852,5.66965 6.4256,5.29168 6.4256,14.74111 0,8.69347 -6.0477,14.7411 -6.0476,6.04763 -14.7411,6.04763 z"
         style="stroke-width:1.97174;fill:#89b4fa;fill-opacity:1"
         id="path675" />
      <path
         d="m 1428.2292,396.65506 q -4.5357,0 -7.5595,-1.51191 -2.6459,-1.51191 -5.6697,-5.29168 l -65.39,-83.15493 -11.3393,-9.82741 -65.768,-83.53291 q -4.1578,-4.9137 -4.1578,-10.20538 0.378,-5.29168 3.7798,-9.07145 3.4018,-4.15774 9.8274,-4.15774 6.4256,0 10.9613,4.53572 l 63.5002,81.26505 10.2054,8.3155 70.3037,89.95852 q 4.9137,6.04763 4.1577,11.33931 -0.7559,5.29168 -4.9137,8.31549 -3.7797,3.02382 -7.9375,3.02382 z m -149.6789,0 q -6.0476,0 -9.8274,-3.77977 -3.4018,-3.77977 -3.7798,-9.07145 0,-5.29168 4.1578,-10.20538 l 69.5478,-86.9347 16.253,21.54468 -66.146,83.9109 q -3.4018,4.53572 -10.2054,4.53572 z m 88.4466,-98.27402 -18.5208,-18.89885 65.39,-82.77696 q 2.6458,-3.77977 5.6696,-5.29168 3.4018,-1.5119 6.8036,-1.5119 6.4256,0 9.8274,4.15774 3.4018,3.77977 3.0238,9.44943 0,5.29168 -3.7797,10.20538 z"
         style="stroke-width:1.97174;fill:#cba6f7;fill-opacity:1"
         id="path677" />
    </g>
  </g>
</svg>
